<svg xmlns="http://www.w3.org/2000/svg" viewBox="0 0 24 24">
  <path fill="#eaf2ff" d="m19.4 13 .1-1-.1-1 2-1.6a.6.6 0 0 0 .1-.8l-1.9-3.3a.6.6 0 0 0-.8-.2l-2.4 1a8 8 0 0 0-1.7-1l-.4-2.5a.6.6 0 0 0-.6-.5h-3.8a.6.6 0 0 0-.6.5l-.4 2.5a8 8 0 0 0-1.7 1l-2.4-1a.6.6 0 0 0-.8.2L2.4 8.6a.6.6 0 0 0 .1.8l2 1.6-.1 1 .1 1-2 1.6a.6.6 0 0 0-.1.8l1.9 3.3a.6.6 0 0 0 .8.2l2.4-1a8 8 0 0 0 1.7 1l.4 2.5a.6.6 0 0 0 .6.5h3.8a.6.6 0 0 0 .6-.5l.4-2.5a8 8 0 0 0 1.7-1l2.4 1a.6.6 0 0 0 .8-.2l1.9-3.3a.6.6 0 0 0-.1-.8l-2-1.6ZM12 15.2A3.2 3.2 0 1 1 12 8.8a3.2 3.2 0 0 1 0 6.4Z"/>
</svg>
